<svg width="60" height="60" viewBox="0 0 60 60" fill="none" xmlns="http://www.w3.org/2000/svg">
<g clip-path="url(#clip0)">
<path d="M55.1856 39.3831C51.5122 39.3831 47.9053 38.8086 44.4873 37.6791C42.8125 37.1078 40.7536 37.6319 39.7314 38.6817L32.985 43.7745C25.1611 39.5981 20.3417 34.7803 16.2223 27.0152L21.1653 20.4445C22.4495 19.162 22.9102 17.2886 22.3583 15.5308C21.2239 12.0948 20.6477 8.48969 20.6477 4.81469C20.6478 2.15984 18.488 0 15.8333 0H4.81453C2.15984 0 0 2.15984 0 4.81453C0 35.2442 24.7559 60 55.1856 60C57.8403 60 60.0002 57.8402 60.0002 55.1855V44.1975C60 41.543 57.8402 39.3831 55.1856 39.3831Z" fill="#4BA1AA"/>
</g>
<defs>
<clipPath id="clip0">
<rect width="60" height="60" fill="white"/>
</clipPath>
</defs>
</svg>
