<svg width="41" height="42" viewBox="0 0 41 42" fill="none" xmlns="http://www.w3.org/2000/svg">
<path fill-rule="evenodd" clip-rule="evenodd" d="M20.3844 41.4773C31.6426 41.4773 40.7692 32.3507 40.7692 21.0925C40.7692 9.83434 31.6426 0.707764 20.3844 0.707764C9.12621 0.707764 -0.000366211 9.83434 -0.000366211 21.0925C-0.000366211 32.3507 9.12621 41.4773 20.3844 41.4773ZM27.8695 11.0401H25.1219C22.9675 11.0401 22.5511 12.0985 22.5499 13.6448V17.3304H27.4118L26.7459 22.6801H22.5511V36.1397H17.1914V22.6788H12.8198V17.3291H17.1914V13.1143C17.1914 8.53456 19.9051 6.04279 23.8666 6.04279C25.7652 6.04279 27.3955 6.18952 27.8695 6.25473V11.0401Z" fill="#ffffff"/>
</svg>
