<svg width="42" height="42" viewBox="0 0 42 42" fill="none" xmlns="http://www.w3.org/2000/svg">
<g clip-path="url(#clip0)">
<path d="M25.2391 21.0926C25.2391 23.2475 23.4923 24.9943 21.3373 24.9943C19.1824 24.9943 17.4355 23.2475 17.4355 21.0926C17.4355 18.9376 19.1824 17.1908 21.3373 17.1908C23.4923 17.1908 25.2391 18.9376 25.2391 21.0926Z" fill="#470024"/>
<path d="M30.4622 14.1891C30.2746 13.6808 29.9754 13.2208 29.5866 12.8432C29.209 12.4544 28.7493 12.1551 28.2407 11.9676C27.8283 11.8074 27.2087 11.6167 26.0674 11.5648C24.8329 11.5085 24.4627 11.4963 21.3373 11.4963C18.2116 11.4963 17.8415 11.5082 16.6072 11.5645C15.466 11.6167 14.8461 11.8074 14.434 11.9676C13.9254 12.1551 13.4654 12.4544 13.0881 12.8432C12.6992 13.2208 12.4 13.6805 12.2121 14.1891C12.052 14.6015 11.8613 15.2214 11.8093 16.3627C11.753 17.5969 11.7409 17.967 11.7409 21.0928C11.7409 24.2182 11.753 24.5883 11.8093 25.8228C11.8613 26.9641 12.052 27.5837 12.2121 27.9961C12.4 28.5047 12.6989 28.9644 13.0877 29.342C13.4654 29.7308 13.9251 30.0301 14.4336 30.2176C14.8461 30.3781 15.466 30.5688 16.6072 30.6207C17.8415 30.677 18.2113 30.6889 21.337 30.6889C24.463 30.6889 24.8332 30.677 26.0671 30.6207C27.2083 30.5688 27.8283 30.3781 28.2407 30.2176C29.2616 29.8238 30.0684 29.017 30.4622 27.9961C30.6224 27.5837 30.8131 26.9641 30.8653 25.8228C30.9216 24.5883 30.9334 24.2182 30.9334 21.0928C30.9334 17.967 30.9216 17.5969 30.8653 16.3627C30.8134 15.2214 30.6227 14.6015 30.4622 14.1891ZM21.3373 27.1031C18.0175 27.1031 15.3263 24.4123 15.3263 21.0924C15.3263 17.7726 18.0175 15.0818 21.3373 15.0818C24.6568 15.0818 27.348 17.7726 27.348 21.0924C27.348 24.4123 24.6568 27.1031 21.3373 27.1031ZM27.5856 16.2488C26.8099 16.2488 26.181 15.6199 26.181 14.8441C26.181 14.0684 26.8099 13.4394 27.5856 13.4394C28.3614 13.4394 28.9903 14.0684 28.9903 14.8441C28.99 15.6199 28.3614 16.2488 27.5856 16.2488Z" fill="#470024"/>
<path d="M21.3373 0.707764C10.0809 0.707764 0.952576 9.83606 0.952576 21.0925C0.952576 32.349 10.0809 41.4773 21.3373 41.4773C32.5938 41.4773 41.7221 32.349 41.7221 21.0925C41.7221 9.83606 32.5938 0.707764 21.3373 0.707764ZM32.9721 25.9184C32.9154 27.1645 32.7173 28.0152 32.428 28.7598C31.8199 30.3322 30.577 31.5751 29.0047 32.1832C28.2603 32.4725 27.4093 32.6703 26.1635 32.7272C24.9153 32.7842 24.5166 32.7979 21.3377 32.7979C18.1584 32.7979 17.76 32.7842 16.5115 32.7272C15.2657 32.6703 14.4147 32.4725 13.6704 32.1832C12.889 31.8893 12.1817 31.4286 11.5969 30.833C11.0016 30.2485 10.5409 29.5409 10.247 28.7598C9.95769 28.0155 9.75956 27.1645 9.70295 25.9187C9.6454 24.6702 9.63203 24.2714 9.63203 21.0925C9.63203 17.9136 9.6454 17.5149 9.70264 16.2666C9.75925 15.0206 9.95707 14.1699 10.2463 13.4252C10.5403 12.6442 11.0013 11.9366 11.5969 11.3521C12.1814 10.7564 12.889 10.2958 13.67 10.0018C14.4147 9.71257 15.2654 9.51475 16.5115 9.45782C17.7597 9.4009 18.1584 9.38722 21.3373 9.38722C24.5162 9.38722 24.915 9.4009 26.1632 9.45813C27.4093 9.51475 28.26 9.71257 29.0047 10.0015C29.7857 10.2955 30.4933 10.7564 31.0781 11.3521C31.6734 11.9369 32.1344 12.6442 32.428 13.4252C32.7176 14.1699 32.9154 15.0206 32.9724 16.2666C33.0293 17.5149 33.0427 17.9136 33.0427 21.0925C33.0427 24.2714 33.0293 24.6702 32.9721 25.9184Z" fill="#470024"/>
</g>
<defs>
<clipPath id="clip0">
<rect x="0.952576" y="0.707764" width="40.7695" height="40.7695" fill="none"/>
</clipPath>
</defs>
</svg>
