<svg width="60" height="60" viewBox="0 0 60 60" fill="none" xmlns="http://www.w3.org/2000/svg">
<path d="M30 0C18.9722 0 9.99997 8.97223 9.99997 20C9.99997 23.3106 10.8277 26.593 12.4011 29.5044L28.9063 59.3555C29.126 59.7534 29.5447 60 30 60C30.4553 60 30.874 59.7534 31.0937 59.3555L47.605 29.4946C49.1724 26.593 50.0001 23.3105 50.0001 19.9999C50.0001 8.97223 41.0278 0 30 0ZM30 30C24.4861 30 20.0001 25.5139 20.0001 20C20.0001 14.4861 24.4861 10.0001 30 10.0001C35.5139 10.0001 40 14.4861 40 20C40 25.5139 35.5139 30 30 30Z" fill="#4BA1AA"/>
</svg>
