<svg width="202" height="178" viewBox="0 0 202 178" fill="none" xmlns="http://www.w3.org/2000/svg">
<path d="M132.97 154.017C133.3 154.072 133.627 154.099 133.95 154.099C136.791 154.099 139.298 152.047 139.781 149.152L145.699 113.645C146.236 110.421 144.058 107.372 140.834 106.834C137.61 106.295 134.561 108.475 134.024 111.699L128.106 147.207C127.569 150.431 129.746 153.48 132.97 154.017Z" fill="#470024"/>
<path d="M62.6137 149.152C63.0962 152.047 65.603 154.099 68.4441 154.099C68.7672 154.099 69.0946 154.072 69.4241 154.017C72.6482 153.48 74.826 150.431 74.2887 147.207L68.3707 111.699C67.8333 108.475 64.7848 106.297 61.5603 106.834C58.3362 107.372 56.1584 110.421 56.6957 113.645L62.6137 149.152Z" fill="#470024"/>
<path d="M196.082 59.41H175.254L129.688 2.45155C127.646 -0.0998826 123.922 -0.514536 121.37 1.52756C118.817 3.56926 118.404 7.29324 120.446 9.84546L160.097 59.41H41.9028L81.5547 9.84546C83.5964 7.29324 83.1826 3.56886 80.6307 1.52756C78.0781 -0.514536 74.3541 -0.100277 72.3128 2.45155L26.7457 59.41H5.91797C2.64967 59.41 0 62.0597 0 65.328V88.9999C0 92.2682 2.64967 94.9178 5.91797 94.9178H13.2902L35.7359 173.477C36.4614 176.018 38.7836 177.769 41.4258 177.769H160.574C163.216 177.769 165.539 176.018 166.265 173.477L188.71 94.9178H196.082C199.35 94.9178 202 92.2682 202 88.9999V65.328C202 62.0597 199.35 59.41 196.082 59.41ZM156.11 165.933H45.8895L25.5996 94.9178H176.401L156.11 165.933ZM190.164 83.0819C169.891 83.0819 31.0417 83.0819 11.8359 83.0819V71.246H190.164V83.0819Z" fill="#470024"/>
<path d="M101 154.098C104.268 154.098 106.918 151.448 106.918 148.18V112.672C106.918 109.403 104.268 106.754 101 106.754C97.7317 106.754 95.082 109.403 95.082 112.672V148.18C95.082 151.448 97.7317 154.098 101 154.098Z" fill="#470024"/>
</svg>
