<svg width="42" height="42" viewBox="0 0 42 42" fill="none" xmlns="http://www.w3.org/2000/svg">
<g clip-path="url(#clip0)">
<path d="M20.8608 0.707764C9.60437 0.707764 0.476074 9.83606 0.476074 21.0925C0.476074 32.349 9.60437 41.4773 20.8608 41.4773C32.1173 41.4773 41.2456 32.349 41.2456 21.0925C41.2456 9.83606 32.1173 0.707764 20.8608 0.707764ZM30.1683 16.6016C30.1773 16.8023 30.1817 17.0038 30.1817 17.2063C30.1817 23.389 25.4755 30.5185 16.8692 30.5188H16.8695H16.8692C14.2268 30.5188 11.768 29.7443 9.69737 28.4171C10.0635 28.4603 10.4361 28.4818 10.8134 28.4818C13.0057 28.4818 15.0231 27.734 16.6247 26.4789C14.5765 26.441 12.8495 25.0882 12.2536 23.2291C12.5388 23.2839 12.8321 23.3137 13.1329 23.3137C13.56 23.3137 13.9736 23.2562 14.3668 23.1489C12.2259 22.7202 10.6131 20.8281 10.6131 18.5625C10.6131 18.5413 10.6131 18.5224 10.6137 18.5028C11.2442 18.8533 11.9652 19.0642 12.7329 19.0878C11.4766 18.2496 10.6507 16.8166 10.6507 15.1932C10.6507 14.336 10.8825 13.5328 11.2843 12.8414C13.5917 15.6725 17.0399 17.5345 20.9287 17.7301C20.8484 17.3873 20.807 17.0303 20.807 16.6632C20.807 14.0803 22.9026 11.9848 25.4864 11.9848C26.8323 11.9848 28.0479 12.5537 28.9017 13.4632C29.9677 13.2529 30.9686 12.8635 31.8728 12.3275C31.5229 13.4196 30.7814 14.336 29.8153 14.9155C30.7618 14.8022 31.6638 14.5512 32.5021 14.1786C31.8759 15.117 31.0818 15.9413 30.1683 16.6016Z" fill="#ffffff"/>
</g>
<defs>
<clipPath id="clip0">
<rect x="0.476074" y="0.707764" width="40.7695" height="40.7695" fill="white"/>
</clipPath>
</defs>
</svg>
